<svg width="128" height="128" viewBox="0 0 128 128" xmlns="http://www.w3.org/2000/svg">
  <!-- 背景圆形 -->
  <circle cx="64" cy="64" r="60" fill="#E60023" stroke="#fff" stroke-width="4"/>
  
  <!-- Pinterest P字母 -->
  <path d="M64 20C41.9 20 24 37.9 24 60c0 17.1 10.7 31.7 25.8 37.4-.4-3.5-.7-8.8.1-12.6.7-3.4 4.6-19.4 4.6-19.4s-1.2-2.3-1.2-5.7c0-5.4 3.1-9.4 7-9.4 3.3 0 4.9 2.5 4.9 5.4 0 3.3-2.1 8.2-3.2 12.8-.9 3.8 1.9 6.9 5.7 6.9 6.8 0 12.1-7.2 12.1-17.6 0-9.2-6.6-15.6-16.1-15.6-10.9 0-17.3 8.2-17.3 16.7 0 3.3 1.3 6.8 2.9 8.7.3.4.4.7.3 1.1-.3 1.2-1 4.1-1.1 4.7-.2.8-.6 1-1.4.6-5.2-2.4-8.4-10-8.4-16.1 0-12.1 8.8-23.2 25.4-23.2 13.3 0 23.7 9.5 23.7 22.2 0 13.2-8.3 23.8-19.9 23.8-3.9 0-7.5-2-8.7-4.4 0 0-1.9 7.3-2.4 9.1-.9 3.3-3.3 7.4-4.9 9.9C56.9 106.4 60.4 107 64 107c22.1 0 40-17.9 40-40S86.1 20 64 20z" fill="#fff"/>
  
  <!-- 禁止符号 -->
  <circle cx="64" cy="64" r="50" fill="none" stroke="#ff0000" stroke-width="6" opacity="0.8"/>
  <line x1="30" y1="30" x2="98" y2="98" stroke="#ff0000" stroke-width="6" stroke-linecap="round" opacity="0.9"/>
</svg>
